<svg width="80" height="80" viewBox="0 0 80 80" fill="none" xmlns="http://www.w3.org/2000/svg">
<rect width="80" height="80" rx="10" fill="#F5F5F5"/>
<path d="M68.5 58H61V26.6359C61 24.0802 58.9816 21.9999 56.5 21.9999H46V27.9999H55V64H68.5C69.3288 64 70 63.3287 70 62.5V59.5C70 58.6712 69.3288 58 68.5 58ZM39.2725 16.0946L21.2725 20.7577C19.9366 21.1037 19 22.3468 19 23.7737V58H11.5C10.6712 58 10 58.6712 10 59.5V62.5C10 63.3287 10.6712 64 11.5 64H43V19.1105C43 17.0874 41.1662 15.6033 39.2725 16.0946ZM34.75 43C33.5078 43 32.5 41.6565 32.5 40C32.5 38.3434 33.5078 36.9999 34.75 36.9999C35.9922 36.9999 37 38.3434 37 40C37 41.6565 35.9922 43 34.75 43Z" fill="#02A38C"/>
</svg>
